
<global>
amp_veltrack=0
ampeg_attack=0.002
ampeg_release=0.35
</global>

<group>
group_label=PP
lpc_hicc1=42
lpc_locc1=0

<region>
end=361633
hikey=g#4
hivel=127
lokey=g4
loop_end=271224
loop_mode=loop_continuous
loop_start=93052
loop_xfade=53451
lovel=1
lpc=gDX4QLlakMGGzZxBLfKAwQQ9VUE0vDHBiAAEQReguMDuIW9AwD6yv61CNz54Myq+Gjtmv4sdE0AGde6/M+p+P2rLmL8yEgVAiNjzvzGAtT+0SJK/ZUUbP636Fz5RO4i+
lpc_rms=-46.65
pitch_keycenter=g#4
sample=Solocello_trill_perf5th_PP_G#4.opus
</region>

<region>
end=368657
hikey=g#3
hivel=127
lokey=g3
loop_end=276492
loop_mode=loop_continuous
loop_start=94859
loop_xfade=54489
lovel=1
lpc=XGGOQd37I8IHJwFC+A01wdxw8kCTDAbBEZuVQJ+oo8BKF8ZAMWNNwJlcNUBwopHAzjbWP3L0AEBEFiq/AAKFvzGheL45ELw/F8NivvpfXL1XXK+/43t4P5O/5L6yT+E+
lpc_rms=-50.20
offset=17130
pitch_keycenter=g#3
sample=Solocello_trill_perf5th_PP_G#3.opus
</region>

<region>
end=343759
hikey=g#2
hivel=127
lokey=g2
loop_end=257819
loop_mode=loop_continuous
loop_start=88453
loop_xfade=50809
lovel=1
lpc=lEbNQfqbgMIwdlhCjyGdwXdvh0GM05zBSUfwQOTrbMASh8xATauXwJraTUABolPAqLd2v92Y40B7roHAAvCVvyFYtb60jLI/RRbDPnKPQL+Rd0Y+P2XoPihvsb+NZFY/
lpc_rms=-43.19
offset=7906
pitch_keycenter=g#2
sample=Solocello_trill_perf5th_PP_G#2.opus
</region>

<region>
end=306476
hikey=C6
hivel=127
lokey=f5
loop_end=229857
loop_mode=loop_continuous
loop_start=78859
loop_xfade=45299
lovel=1
lpc=zhAbQVAVpsHRcqNBOIeAwU7FW0H10TzB/pYpQammAMGPI7JAWThbwPPzGkDQ+tu/uFLwPdMLWD8o17k+kQMmvvXlwb6VaHQ/8VICv+Ovt7/uPC5AwEMswK5dJUAp7my/
lpc_rms=-45.88
pitch_keycenter=F#5
sample=Solocello_trill_perf5th_PP_F#5.opus
</region>

<region>
end=374205
hikey=f#4
hivel=127
lokey=f4
loop_end=280653
loop_mode=loop_continuous
loop_start=96287
loop_xfade=55309
lovel=1
lpc=LJYDQQuMnMGQgp5BCkdUwbX7LEGHOybBWNHgQMuYZsCN5iFArLwGwBuOuD84hL2/NCOKP0NUED9P866/lm5TP6J3g76DchU/4TtQv86WTD9t8ZS/13ctPzbTlr2wTFA+
lpc_rms=-49.18
offset=12810
pitch_keycenter=f#4
sample=Solocello_trill_perf5th_PP_F#4.opus
</region>

<region>
end=372762
hikey=f#3
hivel=127
lokey=f3
loop_end=279571
loop_mode=loop_continuous
loop_start=95915
loop_xfade=55096
lovel=1
lpc=3lmlQeSkS8IoRjlCt426we8mf0F1NF3BFmkAQazBssDpvohAYUT4v3sNH0A3vXbABNd2vmICjEB1Lu+/Ha2svv5d4b620jg/3T9Lvik+Ej7yG4q/YUHFP97pgr/HE8c+
lpc_rms=-50.76
offset=16772
pitch_keycenter=f#3
sample=Solocello_trill_perf5th_PP_F#3.opus
</region>

<region>
end=337870
hikey=f#2
hivel=127
lokey=f2
loop_end=253402
loop_mode=loop_continuous
loop_start=86937
loop_xfade=49939
lovel=1
lpc=8EwsQnl218KJRrhCbHsIwkNfnEGUo5bBT+moQDdvoz10uvO+CToAv10HekCM5yg/UfQawfLkVEHdGQzBPDdTP3Fr4z/hTpxAv4EZwTZDjED7Gck/92thv0J2MsBSbg5A
lpc_rms=-41.04
pitch_keycenter=f#2
sample=Solocello_trill_perf5th_PP_F#2.opus
</region>

<region>
end=354472
hikey=e5
hivel=127
lokey=d#5
loop_end=265854
loop_mode=loop_continuous
loop_start=91209
loop_xfade=52393
lovel=1
lpc=eBpsQVDdAcI3FQNCIoe+wQbUlkHSXHrBlP8gQWkPm8ArphdACUf2vtwKID8e6LS/8uYevzUppUAtGvbAA37ZQCbrXcDrRCRAYxa9v1oPAT8G0nc/rPRSv1MkmL+s9bA/
lpc_rms=-43.67
offset=4921
pitch_keycenter=e5
sample=Solocello_trill_perf5th_PP_E5.opus
</region>

<region>
end=345153
hikey=e4
hivel=127
lokey=d#4
loop_end=258864
loop_mode=loop_continuous
loop_start=88811
loop_xfade=51015
lovel=1
lpc=W2JOQbp/AcIgtg1CJZrTweypqEHbkI/BtuJHQe0R+MCbsItAsn2yv9ewZb6jZ/4+NeHUv4KACEAX4Kq/1kgMQA1nisC0O69Aea+IwHtiDkCNOW6/TTbiP7zYZcA/YBZA
lpc_rms=-43.12
pitch_keycenter=e4
sample=Solocello_trill_perf5th_PP_E4.opus
</region>

<region>
end=346997
hikey=e3
hivel=127
lokey=d#3
loop_end=260247
loop_mode=loop_continuous
loop_start=89286
loop_xfade=51288
lovel=1
lpc=XCmMQczpKcLMKiBCVNq1wZdmakGptSbBV0+qQDLcZMB/BxFAZiKHv6A8HECr1VXA3+nlPpetLkCMVQTACXuOP8Q0+78eDjVA8fDZv1dyqD+LxyPApigbQIALBMBhOpU/
lpc_rms=-48.59
pitch_keycenter=e3
sample=Solocello_trill_perf5th_PP_E3.opus
</region>

<region>
end=354211
hikey=e2
hivel=127
lokey=d#2
loop_end=265658
loop_mode=loop_continuous
loop_start=91142
loop_xfade=52354
lovel=1
lpc=FKbBQaRMY8JlnypCtxZLwchXWEHloIjBow0EQStFfsCweW5ATDaTwPVji0BSBea+sV9CwAUKl0CSICHAWwOmv7GhgD9OyqC+jifIPxkIg7+0+ug+uq9HvoYPrL+gaoo/
lpc_rms=-42.44
pitch_keycenter=e2
sample=Solocello_trill_perf5th_PP_E2.opus
</region>

<region>
end=358854
hikey=d5
hivel=127
lokey=c#5
loop_end=269140
loop_mode=loop_continuous
loop_start=92337
loop_xfade=53040
lovel=1
lpc=Gv/1QGQBisG/po5BezRewSXQMEFxZgvB9snmQDkiucAuR2xAJe3IvxOINT8Vu9C9NU+Fv02gsD+KoLi/NkEQQK1c0L/BfoE/rzc8v13u7j6it4K/bUfOP8EeC7+PgAO+
lpc_rms=-46.89
pitch_keycenter=d5
sample=Solocello_trill_perf5th_PP_D5.opus
</region>

<region>
end=348294
hikey=d4
hivel=127
lokey=c#4
loop_end=261220
loop_mode=loop_continuous
loop_start=89620
loop_xfade=51480
lovel=1
lpc=C+YOQf48rsECC7hBsUeCwWt4P0HqSCTBPRMQQaoZ9sANzrdAEt44wJyi8T82HQDA3xA5P/YTHj+1wre+0lYQP8JJ9793AwRA/s2kv6xAyj+Bg/2/e7XYP2/rer+hv6k+
lpc_rms=-48.49
pitch_keycenter=d4
sample=Solocello_trill_perf5th_PP_D4.opus
</region>

<region>
end=336046
hikey=d3
hivel=127
lokey=c#3
loop_end=252034
loop_mode=loop_continuous
loop_start=86468
loop_xfade=49669
lovel=1
lpc=TZjCQYOue8L0CGFCzwSmwar9S0FZwYjB6XkcQVG3r8Ck9u5ATY3OwP4uM0Dchh8/fEdMwFlzO0ByXos/wGdvwCc6uT8YlCpA4AhSwLbttz5oQeg/PnTPvygvNT7UvLY+
lpc_rms=-46.05
pitch_keycenter=d3
sample=Solocello_trill_perf5th_PP_D3.opus
</region>

<region>
end=353556
hikey=d2
hivel=127
lokey=c#2
loop_end=265167
loop_mode=loop_continuous
loop_start=90974
loop_xfade=52257
lovel=1
lpc=KjvqQeIZgcI+OyhCw+AMwYX+Y0Hq55DB5eroQHCTmcBqotFAktq8wI+fPEAEhgq+kD46vz6f5D+Zq4s/le9SwHD1EkDiI9K/WjNnv6NGUEBZDz2/K2Y2v2RFE8DLzQFA
lpc_rms=-42.04
pitch_keycenter=d2
sample=Solocello_trill_perf5th_PP_D2.opus
</region>

<region>
end=349419
hikey=c5
hivel=127
lokey=b4
loop_end=262064
loop_mode=loop_continuous
loop_start=89909
loop_xfade=51646
lovel=1
lpc=g00uQXkw08HQxeRBTHGtwZBrgUGPoFDBxacmQfIq2MDaNoBA+VBDwCrlM0AdVKm/m8f4v2rQhEBUQFHAp1sSQPJpP8Dy8ntA6tgtwI79lT+lThe/XD09P5rRl780BHI/
lpc_rms=-46.64
pitch_keycenter=c5
sample=Solocello_trill_perf5th_PP_C5.opus
</region>

<region>
end=354871
hikey=c4
hivel=127
lokey=b3
loop_end=266153
loop_mode=loop_continuous
loop_start=91312
loop_xfade=52452
lovel=1
lpc=WdwnQVeNzMGqadNBslOSwdsiWUFcsTTB4zMRQbRj8cAAWqVANqEfwAswQEC5PInAA1jfP7ZI2D8leN6/9rCcPzIHFcCQf0hAajkqwKjKFUAQ7xDACtMlQA/9KsB8XaU/
lpc_rms=-47.77
offset=12836
pitch_keycenter=c4
sample=Solocello_trill_perf5th_PP_C4.opus
</region>

<region>
end=364267
hikey=c3
hivel=127
lokey=b2
loop_end=273200
loop_mode=loop_continuous
loop_start=93730
loop_xfade=53841
lovel=1
lpc=tGXRQbVdhsL1Z3VCNgTNwSPFgEGBD5rBLpwiQYCTgcD/1elACUH5wAQIG0BHvxBAQxKOwF8Qo0DF8+G/jc/uv6tNhz9Ah0ZAJ4/CwHbISkB/KmY/sl2hPy5ni8Cs3xBA
lpc_rms=-45.54
pitch_keycenter=c3
sample=Solocello_trill_perf5th_PP_C3.opus
</region>

<region>
end=359569
hivel=127
key=c2
loop_end=269676
loop_mode=loop_continuous
loop_start=92521
loop_xfade=53146
lovel=1
lpc=+w8NQlr7qcKYyINC8F2owYuttUEKHe7Btb+HQZqeIMFhlwpBgEWrwI6yQL7R1IRAVZrJwM8e/UCPlx2/cidTwImcRcCHxFdAgPIhvdgGlT+t9wC/tuIhvIPJOcBDiRJA
lpc_rms=-41.44
offset=13492
sample=Solocello_trill_perf5th_PP_C2.opus
</region>

<region>
end=351359
hikey=a#4
hivel=127
lokey=a4
loop_end=263519
loop_mode=loop_continuous
loop_start=90408
loop_xfade=51933
lovel=1
lpc=wDa9QBnGTMEoaExBQ0YZwb7S/0BW/s7AqmOiQBRZicA09kpA6yQCwMMaAkB1QJ6/nmqqvev3Xj8bXFu/k2ZkPw8O1L/hu98/bmqGv7URgD9vk0m/q/NBPxuBLL9+1NI+
lpc_rms=-50.05
offset=10653
pitch_keycenter=a#4
sample=Solocello_trill_perf5th_PP_A#4.opus
</region>

<region>
end=372764
hikey=a#3
hivel=127
lokey=a3
loop_end=279573
loop_mode=loop_continuous
loop_start=95916
loop_xfade=55097
lovel=1
lpc=wkiCQU26GMKfgAJCEyN4wfOwL0FLzhbBnLfBQKn3vcDxapBAHqCMv7TNsD/FdU/AyhekvaaggkC+G8C/0GKGPEmTR8CVoIVAQgzTv/yHUj9UPBvAjyk7QBcKI8CCDqQ/
lpc_rms=-49.45
offset=18797
pitch_keycenter=a#3
sample=Solocello_trill_perf5th_PP_A#3.opus
</region>

<region>
end=343382
hikey=a#2
hivel=127
lokey=a2
loop_end=257536
loop_mode=loop_continuous
loop_start=88356
loop_xfade=50754
lovel=1
lpc=BXsNQrQlssLwj51CDCwJwtwY0UFZV9jB2apXQa91KcFuu1dBRskYwR34j0Ag+IU/UQTUwPKi20De9zW/O/H4v94WKT9g7UE/Jc4pwHhyiT9sR4RAY8+YwLfzL79ZbwJA
lpc_rms=-43.15
pitch_keycenter=a#2
sample=Solocello_trill_perf5th_PP_A#2.opus
</region>
</group>

<group>
group_label=MF
lpc_hicc1=84
lpc_locc1=43

<region>
end=374399
hikey=g#4
hivel=127
lokey=g4
loop_end=374399
loop_mode=loop_continuous
loop_start=198611
loop_xfade=58520
lovel=1
lpc=7B/mQF9xcMF7IllBflAYwVK5/0ABL+DAyn+1QH+rlMC0+G9AyvBTwLsSaUAYZlTA7WGTP5COhT8ex6i/A+apP4LtFMAvJFRA4DMSwAbPsT+V04u/64MwP3JHVr8w0RU/
lpc_rms=-30.93
offset=117088
pitch_keycenter=g#4
sample=Solocello_trill_perf5th_MF_G#4.opus
</region>

<region>
end=374399
hikey=g#3
hivel=127
lokey=g3
loop_end=374399
loop_mode=loop_continuous
loop_start=212843
loop_xfade=58520
lovel=1
lpc=DOBrQTEy/8H/RMNBX2guwQvWFEE8Lg/BwqCtQAGJcsBEMVVACAFJwI6lQUDd2Mm/p/sawJyKyEDOY5fAQkakPiEgrL5CrTBAYqwEwA06mD/RyYy/SIqFPwXuwb+RcnY/
lpc_rms=-30.60
offset=139035
pitch_keycenter=g#3
sample=Solocello_trill_perf5th_MF_G#3.opus
</region>

<region>
end=374399
hikey=g#2
hivel=127
lokey=g2
loop_end=374399
loop_mode=loop_continuous
loop_start=179331
loop_xfade=58520
lovel=1
lpc=UZPnQctffML1Px9CoeeZwDvHz0BUvhrBqvU2QJ6ORMDX4G9AfMA/wFaFiUAOA5vAVdqFvjxs80Dp8i3AbBzJwIpWtD9DPMJAo5IDwBQkqL/ZFhC/Md4XQDLgbsAZEQRA
lpc_rms=-23.51
offset=113560
pitch_keycenter=g#2
sample=Solocello_trill_perf5th_MF_G#2.opus
</region>

<region>
end=374399
hikey=f#4
hivel=127
lokey=f4
loop_end=374399
loop_mode=loop_continuous
loop_start=200502
loop_xfade=58520
lovel=1
lpc=rDvwQPZMgsHgTWlBl4YTwcwz3EBXaqPA9TNrQGNFUcBJZC5A/SQXwHvGJkB/wNK/QLQav+flAECbUai/FN1PP3OI07/cyOQ/zVBIvx7N+j6VT5G+wiwEPVqf2r6bq+g+
lpc_rms=-31.83
offset=116316
pitch_keycenter=f#4
sample=Solocello_trill_perf5th_MF_F#4.opus
</region>

<region>
end=374399
hikey=f#3
hivel=127
lokey=f3
loop_end=374399
loop_mode=loop_continuous
loop_start=179331
loop_xfade=58520
lovel=1
lpc=t7VkQR71AcIpuNZBO3hSwQ5fLEEPcxrBDZu7QMTqoMCRWYpAENw4wPqGSED5a0DASB2Hv+DbxkAKFaTAdt/PPouIoj0bUgFAXNnnv1Uqjz+nYUC/lPhJPnykUr/RxkM/
lpc_rms=-32.38
offset=110420
pitch_keycenter=f#3
sample=Solocello_trill_perf5th_MF_F#3.opus
</region>

<region>
end=374399
hikey=f#2
hivel=127
lokey=f2
loop_end=374399
loop_mode=loop_continuous
loop_start=179331
loop_xfade=58520
lovel=1
lpc=ULQZQoTYmsLLaO5BpZFPQQDKYkFFz4/BL3qQwE8EHMCLhQtBzmdKv3oXuD8+SVfAI7zJv2HSNUA84KVA4uWawJE1nMBmPbtAV6efvI1jzr/kDf4+9aZjP1y8ecB1Yy9A
lpc_rms=-26.70
offset=105954
pitch_keycenter=f#2
sample=Solocello_trill_perf5th_MF_F#2.opus
</region>

<region>
end=374399
hikey=C6
hivel=127
lokey=d#5
loop_end=374399
loop_mode=loop_continuous
loop_start=190491
loop_xfade=58520
lovel=1
lpc=ORuwQAIbF8Hq7e1A1JCKwCRPT0B4nR/AvDWxP4cpH78gQyU/23L3va23tD5ivwW/6SKov9DVKEDKz7i/WfgEP+Yxwr7gG2Y/Bm+uvk2eFD8xgxG/n+PwPsVbp76UNZQ+
lpc_rms=-32.16
offset=108429
pitch_keycenter=e5
sample=Solocello_trill_perf5th_MF_E5.opus
</region>

<region>
end=374399
hikey=e4
hivel=127
lokey=d#4
loop_end=374399
loop_mode=loop_continuous
loop_start=179331
loop_xfade=58520
lovel=1
lpc=v2wxQTJSvMGeqaRBDCFNwanGIEE6oQfBaonCQIedhcCcQhJAekvXvxf0xj/oPJ+/huqOvzQlUkDWICnAd9zoP5+xCsDuuz9A703+v661kD+X8pq/ob/CPwtu6799jY4/
lpc_rms=-25.80
offset=104782
pitch_keycenter=e4
sample=Solocello_trill_perf5th_MF_E4.opus
</region>

<region>
end=374399
hikey=e3
hivel=127
lokey=d#3
loop_end=374399
loop_mode=loop_continuous
loop_start=179331
loop_xfade=58520
lovel=1
lpc=tKFfQSXz/cGAVdNB0G1LwW1MIkHdQRnBPwixQOHTd8DtNXRAFtBgwL2hWECQWkXAso76vrlGuEA1r6fAdeNKveko/j/NEq8+tzW6v3HMsj8rS82/zcDTP15i4b89v3A/
lpc_rms=-31.27
offset=111674
pitch_keycenter=e3
sample=Solocello_trill_perf5th_MF_E3.opus
</region>

<region>
end=374399
hikey=e2
hivel=127
lokey=d#2
loop_end=374399
loop_mode=loop_continuous
loop_start=179331
loop_xfade=58520
lovel=1
lpc=ssMIQsp8hML9FrNBcP1MQYvWLkFPSEnBMjl/wASFgMDEgORAw2kMv0+QaEC8oaLA2IhXv5iFTECDaXNAZsChwOpjQcCE/4xAxqaCviwIlr0JbNc76L+Gv1ox77/xGRlA
lpc_rms=-26.70
offset=109289
pitch_keycenter=e2
sample=Solocello_trill_perf5th_MF_E2.opus
</region>

<region>
end=374399
hikey=d5
hivel=127
lokey=c#5
loop_end=374399
loop_mode=loop_continuous
loop_start=179331
loop_xfade=58520
lovel=1
lpc=04qzQN+1McHIvRxBTqXiwCny00DfErTAY0CJQGJzc8AF/yhAeyxSv67jhj9dh7W/J7DbPt+kAD8mo1O/TFzNP39FBMBFjwxASZnNv/E/GD+a9cS+RNssPy3Rkz4bFxC/
lpc_rms=-31.58
offset=105345
pitch_keycenter=d5
sample=Solocello_trill_perf5th_MF_D5.opus
</region>

<region>
end=374399
hikey=d4
hivel=127
lokey=c#4
loop_end=374399
loop_mode=loop_continuous
loop_start=179331
loop_xfade=58520
lovel=1
lpc=RdMSQeVppMGLzY5BAY0ZwQSr4ECD7c3AHluIQCmAGcCVOfM/9Yz9vwYoAECRtJC/udjDv1FXgECA3T/AWL+BPmQP0T118sY/cN90vx9K1763EIS+J5R9P9wvg786mwU/
lpc_rms=-31.11
offset=110379
pitch_keycenter=d4
sample=Solocello_trill_perf5th_MF_D4.opus
</region>

<region>
end=374399
hikey=d3
hivel=127
lokey=c#3
loop_end=374399
loop_mode=loop_continuous
loop_start=179331
loop_xfade=58520
lovel=1
lpc=YIdsQTMhCcKEgd5BFp9Fwb2jKUEi2wHBQSqRP4CbrD7JWEE+wl60Pc33V760qP4/5t+7wI52AkESNpTArM6yPrh0B783cOg/CFBdv8G1ib6dPyI+eD1UP15kBMBuz5k/
lpc_rms=-31.92
offset=102296
pitch_keycenter=d3
sample=Solocello_trill_perf5th_MF_D3.opus
</region>

<region>
end=374399
hikey=d2
hivel=127
lokey=c#2
loop_end=374399
loop_mode=loop_continuous
loop_start=179331
loop_xfade=58520
lovel=1
lpc=7MarQe1aOsKhMt5BtB0qwLuyGUFpVUXB0B4kQA1CH8AVVYZAz8rtvwiZ+b7wvQBA+h4RwJMEDkAGcmw/2LBKwI7PRT1zxQlAN0JpvqYWjL/bOE0/uSxyPqmBzL/bCoI/
lpc_rms=-30.02
offset=107713
pitch_keycenter=d2
sample=Solocello_trill_perf5th_MF_D2.opus
</region>

<region>
end=374399
hikey=c5
hivel=127
lokey=b4
loop_end=374399
loop_mode=loop_continuous
loop_start=179331
loop_xfade=58520
lovel=1
lpc=oQjfQBMWcMFCll1Bpn8QwTyg8UAiw8PADBBpQFBaDMAuDfo/xxj0vxacAUAM61i/wFSiv1ITCECN352/LKPcPl9CBr8mVIw/PAAnv9tI6T69iw+/X+ICPy8Dwr24drc9
lpc_rms=-30.61
offset=111396
pitch_keycenter=c5
sample=Solocello_trill_perf5th_MF_C5.opus
</region>

<region>
end=374399
hikey=c4
hivel=127
lokey=b3
loop_end=374399
loop_mode=loop_continuous
loop_start=179331
loop_xfade=58520
lovel=1
lpc=6bRFQdjm6MGLgtNBPAdnwTSsJEF3PQjBJJOZQCAeVcBkGytAmknGv1EfJEDPJVjAtg3vviBKm0Ad8HLA+XhDP3ENML/NMM8/qshTvtJqG7+wHUq/lKKQPz94aL9z+Sk/
lpc_rms=-31.40
offset=106405
pitch_keycenter=c4
sample=Solocello_trill_perf5th_MF_C4.opus
</region>

<region>
end=374399
hikey=c3
hivel=127
lokey=b2
loop_end=374399
loop_mode=loop_continuous
loop_start=179331
loop_xfade=58520
lovel=1
lpc=TPGGQf5VFsIKW91BH40pwYqLJEF66fXAPn6PP4h8kb8Dwp8/PtvLvqe4ZD+MMCK+wR9twOIC8EDkbYXAjhmuv7LPTz9jqMk/keuxvmfFib/9Rys/dr4xPQPZmL9CdHY/
lpc_rms=-28.36
offset=107144
pitch_keycenter=c3
sample=Solocello_trill_perf5th_MF_C3.opus
</region>

<region>
end=259816
hivel=127
key=c2
loop_end=181871
loop_mode=loop_continuous
loop_start=51963
loop_xfade=38972
lovel=1
lpc=nKsAQlQZi8JH1iFCBX5CwKk0VEFCBXXBQZZHvnFWiL9RGoVAS8wdv+bX6r+DZ1BAoFVZwJB8gUC/0J899RiPwIeoG79NtqlAGxYev1s9D8Du+N09pUPePu19tL8FLqw/
lpc_rms=-23.93
sample=Solocello_trill_perf5th_MF_C2.opus
</region>

<region>
end=374399
hikey=a#4
hivel=127
lokey=a4
loop_end=374399
loop_mode=loop_continuous
loop_start=179331
loop_xfade=58520
lovel=1
lpc=spGnQMfpK8FSExxBt1XZwHMCwEBjtZnAADFvQBr5UsARRxNAnCGpv0QrlD/TzCu/v/jVvjcTvD9Wkcq/nL69PxLx+L+YYxJAOtzmv3J20D/2BYy/f7tZPySJgL/tWCQ/
lpc_rms=-34.88
offset=107453
pitch_keycenter=a#4
sample=Solocello_trill_perf5th_MF_A#4.opus
</region>

<region>
end=374399
hikey=a#3
hivel=127
lokey=a3
loop_end=374399
loop_mode=loop_continuous
loop_start=179331
loop_xfade=58520
lovel=1
lpc=tvpgQS6r+8GOstZBU+pgwVcZKUEShyLBf+ndQIJLnMD8NodALexwwIZlcUAZHBfAPOIcwLZyzUCT0YrAINaJPKJf4T7jqvo/pFLDv0Sa3L1brpS+d0/tP8gGKsDSqq8/
lpc_rms=-31.29
offset=106700
pitch_keycenter=a#3
sample=Solocello_trill_perf5th_MF_A#3.opus
</region>

<region>
end=374399
hikey=a#2
hivel=127
lokey=a2
loop_end=374399
loop_mode=loop_continuous
loop_start=179331
loop_xfade=58520
lovel=1
lpc=CGWfQR/8NMKMqgRCQDgrweenGUEqgeLAf3auvtn+Ir6N3Ig+iZQqPx99rz5hfsU/x0fZwMY0GUG/XYrA5n4BwFrJnD+VE7g/oXcWvo+GgL+uLfI+JtjnPnoLCcCnZMY/
lpc_rms=-29.37
offset=112403
pitch_keycenter=a#2
sample=Solocello_trill_perf5th_MF_A#2.opus
</region>
</group>

<group>
group_label=FF
lpc_hicc1=127
lpc_locc1=85

<region>
end=302696
hikey=g#4
hivel=127
lokey=g4
loop_end=211887
loop_mode=loop_continuous
loop_start=60539
loop_xfade=45404
lovel=1
lpc=g2XQQK+KXMGtkE1BGMUhwapgG0Hx2vzA8I+mQM4bV8Bb/gdAeJX5vzbgEUChxALAuPJXPwzDgT416NU+K2uIv5JwOj70eZ0+79wuP9EIUL/IqmI/Dsagv6kqTT+FEQ++
lpc_rms=-29.68
pitch_keycenter=g#4
sample=Solocello_trill_perf5th_FF_G#4.opus
</region>

<region>
end=292388
hikey=g#3
hivel=127
lokey=g3
loop_end=204671
loop_mode=loop_continuous
loop_start=58477
loop_xfade=43858
lovel=1
lpc=ohI6QcIwx8EKSJ1B4pIgwc7TCkFWWQfBLVSiQFswKsD75VNALeaZwIs3qUDRflzA3dkLv/jzNEA1Rq2/vV+hvgVrrzzEz+I+4f12Pwc55L9ny6U/+wDVv9y5wj//1ce+
lpc_rms=-27.38
pitch_keycenter=g#3
sample=Solocello_trill_perf5th_FF_G#3.opus
</region>

<region>
end=320740
hikey=g#2
hivel=127
lokey=g2
loop_end=224518
loop_mode=loop_continuous
loop_start=64148
loop_xfade=48111
lovel=1
lpc=MrO3QTuLX8JchUZCREbLwbdPokGj/5jBcd1FQe80EcF1VeZAKWDqwABBLEHgXRfBbbdRP/PWyEBOHqDAihKtP1B5QsBBPsVA9P5GwA0HCL+lXis/JVIKwGNJPkDk8pS/
lpc_rms=-21.83
pitch_keycenter=g#2
sample=Solocello_trill_perf5th_FF_G#2.opus
</region>

<region>
end=301860
hikey=C6
hivel=127
lokey=f5
loop_end=211302
loop_mode=loop_continuous
loop_start=60372
loop_xfade=45279
lovel=1
lpc=NAw1QXZFnsHI/X1BRtcxwb2BP0GjFwXBtP8rQAlKQ7+YAgRAVid9v88Suz+jd4O/kL0KPgp4mT/CXSu/0tdDP8yqgL6rp6s/kMXHv3tjqD+GpMI/bm8xwOWakj8R6rg/
lpc_rms=-23.00
pitch_keycenter=F#5
sample=Solocello_trill_perf5th_FF_F#5.opus
</region>

<region>
end=308135
hikey=f#4
hivel=127
lokey=f4
loop_end=215694
loop_mode=loop_continuous
loop_start=61627
loop_xfade=46220
lovel=1
lpc=o9sfQcH1nsFYiYVBvRUwwfYZIkGuWw3B8saYQBfaUMAZSEhAP8YCwHTdcD9OzQG/AhlOv0C+lD8qqcu+RlKiPk46Hr8tyDk/CO4EP702RL/PlkQ/GNKfv2XLxj+hOxe/
lpc_rms=-26.21
pitch_keycenter=f#4
sample=Solocello_trill_perf5th_FF_F#4.opus
</region>

<region>
end=359187
hikey=f#3
hivel=127
lokey=f3
loop_end=251430
loop_mode=loop_continuous
loop_start=71837
loop_xfade=53877
lovel=1
lpc=KQNkQax59MFnb7VBgin4wAJgyUCOtgnBOqjBQCj8gcBKDSdAsU+Sv6NT0D8GWv2/jBXNv2XyXEDc57I/2nqKwDVmvz9YIoo/rtaFvpu8hb6otZM+gsw5v6VrnD7N9ls+
lpc_rms=-28.11
pitch_keycenter=f#3
sample=Solocello_trill_perf5th_FF_F#3.opus
</region>

<region>
end=311752
hikey=f#2
hivel=127
lokey=f2
loop_end=218226
loop_mode=loop_continuous
loop_start=62350
loop_xfade=46762
lovel=1
lpc=M3CuQTUZScKc9xRCA9FJwVIUcEECA4fB4Tn/QB4FlcA+uRdAnowtv/6rWEAfrifAn56NwITFDkGnhzzAiT8mwLJvrr8Ob1dAe0J7PzyFFsBrB2M/Iu5jvK1el7+EH2Q/
lpc_rms=-23.87
pitch_keycenter=f#2
sample=Solocello_trill_perf5th_FF_F#2.opus
</region>

<region>
end=301832
hikey=e5
hivel=127
lokey=d#5
loop_end=211282
loop_mode=loop_continuous
loop_start=60366
loop_xfade=45274
lovel=1
lpc=5PvRQHJbTcGFQjVBhs7ywEXN20CMqKXAuQM6QCuPMcDI1kNAmGzIvzpFnT/oMm2/yx+uv7plOEDK0LK/jmtJPw7Kgb8VqCE/A4QePoKqHD9DlA+/oXOuPXIMaL0rs90+
lpc_rms=-28.03
pitch_keycenter=e5
sample=Solocello_trill_perf5th_FF_E5.opus
</region>

<region>
end=286611
hikey=e4
hivel=127
lokey=d#4
loop_end=200627
loop_mode=loop_continuous
loop_start=57322
loop_xfade=42991
lovel=1
lpc=3lcwQSn7tcGizpJB9Dc0wbM5HkEM5eTAICAzQG8Bj78hse0/d5s8wJYBPkClkBnAlo9RP8j6CD+q40q/uUxvP7p+UzxIbaC+A3XPP7u8VMDbi0xAbVkUwMu+pD/Y3HC+
lpc_rms=-28.63
pitch_keycenter=e4
sample=Solocello_trill_perf5th_FF_E4.opus
</region>

<region>
end=311755
hikey=e3
hivel=127
lokey=d#3
loop_end=218228
loop_mode=loop_continuous
loop_start=62351
loop_xfade=46763
lovel=1
lpc=2Yl2QeqaFMIQkglCCNKawYrTbEH0IGTBjgcZQXvJy8B3S/dAstoZwS6gIUHrdfbAVH0mP09pwUBK9rvAdcACQDR1j7/2BRNAcVKZvzYwkT4Hkga/4dqavh40Qz8+mbS+
lpc_rms=-23.85
pitch_keycenter=e3
sample=Solocello_trill_perf5th_FF_E3.opus
</region>

<region>
end=305354
hikey=e2
hivel=127
lokey=d#2
loop_end=213747
loop_mode=loop_continuous
loop_start=61070
loop_xfade=45803
lovel=1
lpc=zmuxQXvoRcLsMwxCTCc/wWI7XEH3VkPBvaUtQH7vi78UvEY9t4gWPy1fUkAdrUjAZz6JwIDEC0GkHyTAZmcewNGM9L8NGKdATzLrvyf1175XGyu+qsFJP79B778D7pk/
lpc_rms=-22.53
pitch_keycenter=e2
sample=Solocello_trill_perf5th_FF_E2.opus
</region>

<region>
end=307755
hikey=d5
hivel=127
lokey=c#5
loop_end=215428
loop_mode=loop_continuous
loop_start=61551
loop_xfade=46163
lovel=1
lpc=bDy9QNw0K8ENXhVBfePUwLmLr0CywX7Auy1XQOLJGMAhpgk/1/NvPqMM2T60Y16/E7S+PqFRxT5pK0m/CIYGP7iW4T6gSCG+cKyFuzR+D7+ioN8/ViCavzhtND8cE568
lpc_rms=-27.33
pitch_keycenter=d5
sample=Solocello_trill_perf5th_FF_D5.opus
</region>

<region>
end=334856
hikey=d4
hivel=127
lokey=c#4
loop_end=234399
loop_mode=loop_continuous
loop_start=66971
loop_xfade=50228
lovel=1
lpc=9t7yQGOSeMElaUNBC/nSwOL7ykBS0cnAOfyFQL2lK8AHnZ0/bNHMPpd9Ob5OHF+/0mbnPLnKnT/kaY6/qVSQPt+QuT7Qfiq+Cs/UvsOchD+bze69EXUav8EHIz3xXnM+
lpc_rms=-27.56
pitch_keycenter=d4
sample=Solocello_trill_perf5th_FF_D4.opus
</region>

<region>
end=314957
hikey=d3
hivel=127
lokey=c#3
loop_end=220469
loop_mode=loop_continuous
loop_start=62991
loop_xfade=47243
lovel=1
lpc=uZ9wQeKDEMJXKQFCKuODwU33R0HY3UvBofgVQW+C4cC/POtANNv6wBcs+0Dqx8XA135LP1rxlUDD9JXAvYzSP1toSr9XDqQ/qEchv4udiD8NJMO/JLTZvowetD8CE+e+
lpc_rms=-25.71
pitch_keycenter=d3
sample=Solocello_trill_perf5th_FF_D3.opus
</region>

<region>
end=309613
hikey=d2
hivel=127
lokey=c#2
loop_end=216729
loop_mode=loop_continuous
loop_start=61922
loop_xfade=46442
lovel=1
lpc=SWqTQcC+EsJc0ZtB1dngv49Yn0A1mKvANRQuQP+tEsA3Zdy/UEnYP10HD0CwB5W/AaSiv/1isbzLpVpAa2N3wBrF/j+a5h2/kMOFv1MBrj/mswRAyU5ZwCt5fT5xWj4/
lpc_rms=-22.56
pitch_keycenter=d2
sample=Solocello_trill_perf5th_FF_D2.opus
</region>

<region>
end=301842
hikey=c5
hivel=127
lokey=b4
loop_end=211289
loop_mode=loop_continuous
loop_start=60368
loop_xfade=45276
lovel=1
lpc=sfKsQOwBIsHlnwZBnA/FwMAAtEBEln7AFO0hQB1+5L+fe64/+zrEvz6eA0DS8uW/d0hVP/fvg73LDyo/l+jDv1QZuj8XjYi/2cvdP7Un2b+m+eY/q7ccwCzP7D9h2HC+
lpc_rms=-29.12
pitch_keycenter=c5
sample=Solocello_trill_perf5th_FF_C5.opus
</region>

<region>
end=309956
hikey=c4
hivel=127
lokey=b3
loop_end=216969
loop_mode=loop_continuous
loop_start=61991
loop_xfade=46493
lovel=1
lpc=RZQuQYeev8G6QJxBPwEWwYtq80A8GO/ACsGNQPQmVMACc0RAIp8YwM+XJEDHe6a/l9QpwOyeiUBH1oG/WQwRv9ydHr80qxo/LOduP5UqmL/we5U++BBYPsNMO7+2NQ0/
lpc_rms=-28.81
pitch_keycenter=c4
sample=Solocello_trill_perf5th_FF_C4.opus
</region>

<region>
end=307647
hikey=c3
hivel=127
lokey=b2
loop_end=215352
loop_mode=loop_continuous
loop_start=61529
loop_xfade=46146
lovel=1
lpc=PJ2EQWwbF8KG3+lB7zkfwb2ZAEGxYSTBYKneQOXqyMBHdbVAbtmTwIp5tUAEDIbAF2sQvXy7yT/mwt8/nMN8wFkGwz9Oibw/sVKWPnLJMMDNfx9AqTsOwAQ3mD+53nK9
lpc_rms=-26.65
pitch_keycenter=c3
sample=Solocello_trill_perf5th_FF_C3.opus
</region>

<region>
end=316985
hivel=127
key=c2
loop_end=221889
loop_mode=loop_continuous
loop_start=63397
loop_xfade=47547
lovel=1
lpc=5PwQQooZt8IQ855CEnDiwRijYEEEQX3BP0IEQXL/AcEJYOtAP3rEvxAid0C9zp7ASNWywFVJVkGOLa3Ab1BqwN40iz/kxDNAbZHdP0zP2cB/w8hAo+KOwNQkDUC7Eqi+
lpc_rms=-21.36
sample=Solocello_trill_perf5th_FF_C2.opus
</region>

<region>
end=312105
hikey=a#4
hivel=127
lokey=a4
loop_end=218473
loop_mode=loop_continuous
loop_start=62421
loop_xfade=46815
lovel=1
lpc=Ye+iQNKKFsHk+/RAeImzwFxFrUCWgYbAf/ZDQDnpBsAMyGQ/8CISv4U/gj8jjAa/MlwTvtNnCDwJjlM/bvZvvzt1Wj/LQWy/U4HiP65fA8CRswdAER4XwGuD3D9o/sO+
lpc_rms=-30.43
pitch_keycenter=a#4
sample=Solocello_trill_perf5th_FF_A#4.opus
</region>

<region>
end=319721
hikey=a#3
hivel=127
lokey=a3
loop_end=223804
loop_mode=loop_continuous
loop_start=63944
loop_xfade=47958
lovel=1
lpc=urtlQeJtBMLNLexB7ROMwWNXZUEqpUHB5rDmQGrYpMA5t71AQy7xwJdVE0GrztvA6LKQv0OU3UDRAqXAgQstQIeYWcDa4mZAsTnPv4sUFT/qMwq/8aquPeFaAb+paCI/
lpc_rms=-26.91
pitch_keycenter=a#3
sample=Solocello_trill_perf5th_FF_A#3.opus
</region>

<region>
end=308640
hikey=a#2
hivel=127
lokey=a2
loop_end=216048
loop_mode=loop_continuous
loop_start=61728
loop_xfade=46296
lovel=1
lpc=Q7PaQerchcIB2GhCF8/OwW1UkEHU1YbBiNICQfBAysCo+QBB0j4QwbmdPUGeBdnATrPBwOSoKEHayl/AYTshPtCjhcB52LtAcbI4v+EFSMADIqI/Bo9bv09wiD+33zO9
lpc_rms=-22.65
pitch_keycenter=a#2
sample=Solocello_trill_perf5th_FF_A#2.opus
</region>
</group>